<svg width="71" height="55" viewBox="0 0 71 55" fill="none" xmlns="http://www.w3.org/2000/svg">
<mask id="path-1-inside-1_78_427" fill="white">
<path d="M5.8074 1.04213C0.667558 3.54188 -1.70962 12.0667 1.37429 16.6175C2.20951 17.8353 3.81571 19.4377 4.90793 20.1428C6.19289 20.912 6.96387 21.9375 7.02812 22.8348C7.02812 24.4373 9.91928 28.1548 11.14 28.1548C11.5897 28.1548 12.4892 28.7317 13.1317 29.4368C13.7742 30.1418 15.4446 31.0392 16.7938 31.4878C18.9783 32.1288 19.2352 32.4493 19.2352 34.3081C19.2352 35.5259 19.685 37.7052 20.3275 39.1794C24.7606 50.7167 37.5459 53.9215 46.0909 45.6531C48.9179 42.897 49.8173 42.3201 49.6888 42.1278C49.5603 41.9355 50.1327 40.2556 50.3956 39.0512C50.8038 37.1805 51.3593 35.3977 51.3593 34.244C51.3593 32.5134 51.6805 32.0647 53.1582 31.6801C54.122 31.4878 55.7924 30.5905 56.8204 29.8213C57.9126 28.9881 59.326 28.1548 60.097 27.8985C60.9322 27.6421 61.9602 26.2961 62.6027 24.6295C63.2452 23.0912 64.5944 21.2324 65.5581 20.5274C66.5861 19.7582 68.128 17.8994 69.0917 16.297C72.3041 10.8488 70.441 4.43923 64.7871 1.29851C61.5747 -0.496183 58.8121 -0.303899 58.5551 1.74718C58.4266 2.64453 58.8763 3.86236 59.583 4.63151C60.2898 5.40067 61.1892 6.74668 61.639 7.57994C62.2815 8.86186 62.2172 9.24644 61.125 10.4002C59.84 11.618 59.7115 11.618 58.1696 10.5925C57.0131 9.8874 56.4991 8.99005 56.4991 7.70813C56.4991 5.78524 54.7644 3.79827 53.094 3.79827C51.7448 3.79827 50.2028 6.04162 49.3676 9.18234C48.5966 12.0026 49.8173 16.2329 51.9375 18.1558C53.5437 19.5659 53.0297 21.4247 50.5241 23.1553L48.5966 24.5654L47.2474 22.8989C46.4764 22.0657 44.9345 20.6556 43.8423 19.8864C41.5936 18.3481 40.8226 15.3356 42.6858 15.3356C45.1915 15.3356 45.7055 10.0797 43.3283 8.54138C39.7946 6.23391 34.9118 11.3616 38.1884 14.0537C38.7024 14.5023 39.1522 15.4638 39.1522 16.2329C39.1522 17.4508 38.7667 17.579 35.2973 17.579C31.7636 17.579 31.4424 17.4508 31.4424 16.2329C31.4424 15.4638 31.8921 14.5023 32.4061 14.0537C33.9481 12.7717 33.6268 9.75921 31.7636 8.54138C27.716 5.91343 23.4114 11.5539 27.2663 14.5664C28.8725 15.8484 29.5792 19.1814 28.23 19.1814C27.8445 19.1814 26.3025 20.3351 24.7606 21.7452L21.9337 24.3091L20.0062 23.2194C17.3078 21.6811 17.2436 20.0787 19.685 16.3611C22.7689 11.8744 22.3834 7.51585 18.657 4.18284C17.4363 3.02911 17.2436 3.0291 15.7016 4.05464C14.5451 4.8238 14.0954 5.65705 14.0954 7.25945C14.0954 9.75921 12.8747 11.0411 10.8188 10.7207C8.24883 10.3361 8.12033 8.02862 10.626 4.8238C11.911 3.0932 12.6177 1.5549 12.425 0.978031C11.911 -0.36799 8.63432 -0.303896 5.8074 1.04213ZM7.28511 5.65704C6.25714 7.19535 5.03643 8.28499 4.3297 8.28499C3.23748 8.28499 3.23748 8.0927 4.00846 6.61849C4.77943 5.14427 8.31308 2.32405 8.76281 2.77272C8.89131 2.90091 8.18458 4.18283 7.28511 5.65704ZM64.9799 4.8879C68.2565 8.41319 68.8348 11.2334 67.1001 14.951C65.1726 18.9891 60.0328 20.3351 56.0494 17.8994C53.0297 16.1047 51.8733 13.9896 52.1303 10.7847C52.323 8.02861 53.9292 6.3621 53.9292 8.92595C53.9292 10.8488 57.3344 14.0537 59.3903 14.0537C61.5747 14.0537 64.8514 10.8488 64.8514 8.73367C64.8514 7.90042 64.2731 6.4262 63.5664 5.52885C61.2535 2.64452 62.3457 2.13176 64.9799 4.8879ZM18.5928 11.3616C18.5928 13.7973 18.2715 14.5664 16.0871 16.6816C13.9669 18.7968 13.1959 19.1814 10.883 19.1814C7.47785 19.1814 4.90793 17.7071 3.55872 14.951C2.27376 12.259 2.78774 8.92595 4.52244 8.92595C5.16492 8.92595 5.8074 9.50282 6.0644 10.2079C6.64263 11.9385 9.46954 14.0537 11.3327 14.0537C13.7099 14.0537 16.6653 10.7848 16.6653 8.1568C16.7296 6.16982 16.7296 6.10572 17.629 7.25945C18.143 7.96451 18.5928 9.82331 18.5928 11.3616ZM30.6714 11.6821C30.7999 12.3231 30.4787 12.7717 29.9004 12.7717C28.744 12.7717 28.0372 11.7462 28.5512 10.7847C29.1295 9.8874 30.4144 10.4002 30.6714 11.6821ZM42.1718 11.2334C42.6858 12.5153 41.6578 13.5409 40.5014 12.8358C39.5376 12.1949 39.9874 10.2079 41.0796 10.2079C41.4651 10.2079 41.9148 10.6566 42.1718 11.2334ZM38.7667 20.5274C41.9148 21.4247 46.4122 25.5269 47.6971 28.7958L48.6609 31.3597H35.5543H22.3834L22.8331 29.8854C23.7969 26.7447 25.1461 24.95 27.973 22.963C32.4704 19.8864 34.6548 19.3737 38.7667 20.5274ZM59.0048 21.8734C61.2535 21.9375 61.382 22.1939 59.9685 24.1809C58.8121 25.9115 57.7198 25.9756 55.8566 24.4373C54.7644 23.5399 54.5074 22.8989 54.8929 21.8093C55.2142 20.7197 55.5354 20.5274 56.1779 21.1043C56.6919 21.4888 57.9126 21.8734 59.0048 21.8734ZM15.3804 22.1298C15.3804 23.7322 14.0954 25.591 13.0032 25.591C11.654 25.591 9.59804 23.7322 9.59804 22.5785C9.59804 21.9375 9.98353 21.8093 10.883 22.0657C11.5897 22.258 12.6819 22.1939 13.2602 21.8093C14.8664 20.8479 15.3804 20.9761 15.3804 22.1298ZM20.5202 27.5139C20.5202 27.8344 20.3275 28.4753 20.1347 28.9881C19.8135 29.8213 19.5565 29.8213 17.7575 28.924C16.6011 28.4112 15.6374 27.8985 15.5089 27.7703C15.3804 27.7062 15.7659 27.0652 16.4083 26.3601C17.4363 25.1423 17.629 25.1423 19.0425 26.0397C19.8135 26.5524 20.5202 27.2575 20.5202 27.5139ZM53.865 26.1679C55.2142 27.5139 54.8287 28.283 52.1945 29.0522C50.2671 29.6291 49.4318 27.1934 51.1665 25.9115C52.6442 24.7577 52.4515 24.7577 53.865 26.1679ZM48.4681 35.9746C47.3759 39.8204 45.063 43.3457 42.6215 45.0763C35.2973 50.1399 25.4031 46.2941 22.7046 37.3847L21.8694 34.5645H35.3615H48.8536L48.4681 35.9746Z"/>
</mask>
<path d="M5.8074 1.04213C0.667558 3.54188 -1.70962 12.0667 1.37429 16.6175C2.20951 17.8353 3.81571 19.4377 4.90793 20.1428C6.19289 20.912 6.96387 21.9375 7.02812 22.8348C7.02812 24.4373 9.91928 28.1548 11.14 28.1548C11.5897 28.1548 12.4892 28.7317 13.1317 29.4368C13.7742 30.1418 15.4446 31.0392 16.7938 31.4878C18.9783 32.1288 19.2352 32.4493 19.2352 34.3081C19.2352 35.5259 19.685 37.7052 20.3275 39.1794C24.7606 50.7167 37.5459 53.9215 46.0909 45.6531C48.9179 42.897 49.8173 42.3201 49.6888 42.1278C49.5603 41.9355 50.1327 40.2556 50.3956 39.0512C50.8038 37.1805 51.3593 35.3977 51.3593 34.244C51.3593 32.5134 51.6805 32.0647 53.1582 31.6801C54.122 31.4878 55.7924 30.5905 56.8204 29.8213C57.9126 28.9881 59.326 28.1548 60.097 27.8985C60.9322 27.6421 61.9602 26.2961 62.6027 24.6295C63.2452 23.0912 64.5944 21.2324 65.5581 20.5274C66.5861 19.7582 68.128 17.8994 69.0917 16.297C72.3041 10.8488 70.441 4.43923 64.7871 1.29851C61.5747 -0.496183 58.8121 -0.303899 58.5551 1.74718C58.4266 2.64453 58.8763 3.86236 59.583 4.63151C60.2898 5.40067 61.1892 6.74668 61.639 7.57994C62.2815 8.86186 62.2172 9.24644 61.125 10.4002C59.84 11.618 59.7115 11.618 58.1696 10.5925C57.0131 9.8874 56.4991 8.99005 56.4991 7.70813C56.4991 5.78524 54.7644 3.79827 53.094 3.79827C51.7448 3.79827 50.2028 6.04162 49.3676 9.18234C48.5966 12.0026 49.8173 16.2329 51.9375 18.1558C53.5437 19.5659 53.0297 21.4247 50.5241 23.1553L48.5966 24.5654L47.2474 22.8989C46.4764 22.0657 44.9345 20.6556 43.8423 19.8864C41.5936 18.3481 40.8226 15.3356 42.6858 15.3356C45.1915 15.3356 45.7055 10.0797 43.3283 8.54138C39.7946 6.23391 34.9118 11.3616 38.1884 14.0537C38.7024 14.5023 39.1522 15.4638 39.1522 16.2329C39.1522 17.4508 38.7667 17.579 35.2973 17.579C31.7636 17.579 31.4424 17.4508 31.4424 16.2329C31.4424 15.4638 31.8921 14.5023 32.4061 14.0537C33.9481 12.7717 33.6268 9.75921 31.7636 8.54138C27.716 5.91343 23.4114 11.5539 27.2663 14.5664C28.8725 15.8484 29.5792 19.1814 28.23 19.1814C27.8445 19.1814 26.3025 20.3351 24.7606 21.7452L21.9337 24.3091L20.0062 23.2194C17.3078 21.6811 17.2436 20.0787 19.685 16.3611C22.7689 11.8744 22.3834 7.51585 18.657 4.18284C17.4363 3.02911 17.2436 3.0291 15.7016 4.05464C14.5451 4.8238 14.0954 5.65705 14.0954 7.25945C14.0954 9.75921 12.8747 11.0411 10.8188 10.7207C8.24883 10.3361 8.12033 8.02862 10.626 4.8238C11.911 3.0932 12.6177 1.5549 12.425 0.978031C11.911 -0.36799 8.63432 -0.303896 5.8074 1.04213ZM7.28511 5.65704C6.25714 7.19535 5.03643 8.28499 4.3297 8.28499C3.23748 8.28499 3.23748 8.0927 4.00846 6.61849C4.77943 5.14427 8.31308 2.32405 8.76281 2.77272C8.89131 2.90091 8.18458 4.18283 7.28511 5.65704ZM64.9799 4.8879C68.2565 8.41319 68.8348 11.2334 67.1001 14.951C65.1726 18.9891 60.0328 20.3351 56.0494 17.8994C53.0297 16.1047 51.8733 13.9896 52.1303 10.7847C52.323 8.02861 53.9292 6.3621 53.9292 8.92595C53.9292 10.8488 57.3344 14.0537 59.3903 14.0537C61.5747 14.0537 64.8514 10.8488 64.8514 8.73367C64.8514 7.90042 64.2731 6.4262 63.5664 5.52885C61.2535 2.64452 62.3457 2.13176 64.9799 4.8879ZM18.5928 11.3616C18.5928 13.7973 18.2715 14.5664 16.0871 16.6816C13.9669 18.7968 13.1959 19.1814 10.883 19.1814C7.47785 19.1814 4.90793 17.7071 3.55872 14.951C2.27376 12.259 2.78774 8.92595 4.52244 8.92595C5.16492 8.92595 5.8074 9.50282 6.0644 10.2079C6.64263 11.9385 9.46954 14.0537 11.3327 14.0537C13.7099 14.0537 16.6653 10.7848 16.6653 8.1568C16.7296 6.16982 16.7296 6.10572 17.629 7.25945C18.143 7.96451 18.5928 9.82331 18.5928 11.3616ZM30.6714 11.6821C30.7999 12.3231 30.4787 12.7717 29.9004 12.7717C28.744 12.7717 28.0372 11.7462 28.5512 10.7847C29.1295 9.8874 30.4144 10.4002 30.6714 11.6821ZM42.1718 11.2334C42.6858 12.5153 41.6578 13.5409 40.5014 12.8358C39.5376 12.1949 39.9874 10.2079 41.0796 10.2079C41.4651 10.2079 41.9148 10.6566 42.1718 11.2334ZM38.7667 20.5274C41.9148 21.4247 46.4122 25.5269 47.6971 28.7958L48.6609 31.3597H35.5543H22.3834L22.8331 29.8854C23.7969 26.7447 25.1461 24.95 27.973 22.963C32.4704 19.8864 34.6548 19.3737 38.7667 20.5274ZM59.0048 21.8734C61.2535 21.9375 61.382 22.1939 59.9685 24.1809C58.8121 25.9115 57.7198 25.9756 55.8566 24.4373C54.7644 23.5399 54.5074 22.8989 54.8929 21.8093C55.2142 20.7197 55.5354 20.5274 56.1779 21.1043C56.6919 21.4888 57.9126 21.8734 59.0048 21.8734ZM15.3804 22.1298C15.3804 23.7322 14.0954 25.591 13.0032 25.591C11.654 25.591 9.59804 23.7322 9.59804 22.5785C9.59804 21.9375 9.98353 21.8093 10.883 22.0657C11.5897 22.258 12.6819 22.1939 13.2602 21.8093C14.8664 20.8479 15.3804 20.9761 15.3804 22.1298ZM20.5202 27.5139C20.5202 27.8344 20.3275 28.4753 20.1347 28.9881C19.8135 29.8213 19.5565 29.8213 17.7575 28.924C16.6011 28.4112 15.6374 27.8985 15.5089 27.7703C15.3804 27.7062 15.7659 27.0652 16.4083 26.3601C17.4363 25.1423 17.629 25.1423 19.0425 26.0397C19.8135 26.5524 20.5202 27.2575 20.5202 27.5139ZM53.865 26.1679C55.2142 27.5139 54.8287 28.283 52.1945 29.0522C50.2671 29.6291 49.4318 27.1934 51.1665 25.9115C52.6442 24.7577 52.4515 24.7577 53.865 26.1679ZM48.4681 35.9746C47.3759 39.8204 45.063 43.3457 42.6215 45.0763C35.2973 50.1399 25.4031 46.2941 22.7046 37.3847L21.8694 34.5645H35.3615H48.8536L48.4681 35.9746Z" fill="#4D030E" stroke="#4D030E" stroke-width="2" mask="url(#path-1-inside-1_78_427)"/>
<path d="M9.27676 33.4108C5.80736 35.2696 2.85195 39.3718 3.55868 41.2306C4.20116 42.8971 5.42187 42.3843 7.09232 39.8845C9.08401 36.8079 11.0115 35.8465 15.3803 35.8465C18.7855 35.8465 18.8497 35.8465 17.372 34.8209C16.2155 33.9877 16.0871 33.6672 16.7295 33.2185C18.0787 32.3853 10.8187 32.5776 9.27676 33.4108Z" fill="#FA2F3A"/>
<path d="M53.608 33.2184C53.8008 33.5389 53.4795 34.308 52.9013 34.8208C52.0018 35.7823 52.2588 35.8463 55.7925 35.8463C58.9406 35.8463 59.9686 36.1027 61.5748 37.5128C62.667 38.4102 63.5665 39.5639 63.5665 40.0126C63.5665 40.4613 64.0162 41.1663 64.5945 41.615C65.3654 42.3201 65.7509 42.3201 66.5861 41.4868C67.9354 40.0767 67.2286 38.3461 63.8877 35.2695C61.1893 32.7697 60.8038 32.6415 57.1417 32.6415C54.893 32.6415 53.351 32.8979 53.608 33.2184Z" fill="#FA2F3A"/>
<path d="M11.3968 42.1919C9.01958 44.6275 8.89108 44.948 9.08383 48.1528C9.27657 51.0372 9.46932 51.5499 10.5615 51.5499C11.6537 51.5499 11.9107 51.0372 12.0392 48.6656C12.3605 44.6916 14.0952 42.8969 17.8216 42.8969C20.263 42.8969 20.5842 42.7687 19.8775 41.9355C19.492 41.4227 19.2993 40.7177 19.5563 40.3331C19.8133 39.9485 18.8495 39.6921 16.9221 39.6921C14.2879 39.6921 13.6454 40.0126 11.3968 42.1919Z" fill="#FA2F3A"/>
<path d="M19.1705 47.2556C17.5001 48.7939 17.1146 49.563 17.0503 51.9346C16.9861 54.3703 17.1788 54.7548 18.4638 54.9471C19.6845 55.1394 19.8772 54.883 19.8772 52.896C19.8772 50.9732 20.1985 50.4604 22.6399 49.0503C24.8243 47.7042 25.0813 47.3838 23.9249 47.3838C23.0254 47.3838 22.4472 46.9992 22.4472 46.4223C22.4472 45.0122 21.4192 45.2686 19.1705 47.2556Z" fill="#FA2F3A"/>
<path d="M48.1474 46.4223C48.1474 46.9992 47.5049 47.3838 46.7339 47.4478C45.449 47.5119 45.5132 47.576 47.2479 48.3452C49.7536 49.4348 50.5246 50.4604 50.8458 52.8319C50.9743 54.2421 51.3598 54.7548 52.3235 54.7548C55.2147 54.7548 53.9297 48.0888 50.6531 46.4223C48.4044 45.2045 48.1474 45.2045 48.1474 46.4223Z" fill="#FA2F3A"/>
<path d="M7.19098 5.8556C6.16301 7.39391 4.9423 8.48355 4.23557 8.48355C3.14336 8.48355 3.14336 8.29126 3.91433 6.81704C4.68531 5.34283 8.21895 2.5226 8.66869 2.97127C8.79718 3.09947 8.09046 4.38138 7.19098 5.8556ZM64.8857 5.08645C68.1624 8.61175 68.7406 11.432 67.0059 15.1496C65.0785 19.1876 59.9386 20.5337 55.9553 18.098C52.9356 16.3033 51.7791 14.1881 52.0361 10.9833C52.2289 8.22717 53.8351 6.56066 53.8351 9.12451C53.8351 11.0474 57.2402 14.2522 59.2962 14.2522C61.4806 14.2522 64.7573 11.0474 64.7573 8.93222C64.7573 8.09897 64.179 6.62476 63.4723 5.72741C61.1594 2.84308 62.2516 2.33031 64.8857 5.08645ZM18.4986 11.5602C18.4986 13.9958 18.1774 14.765 15.993 16.8802C13.8728 18.9953 13.1018 19.3799 10.7889 19.3799C7.38373 19.3799 4.81381 17.9057 3.4646 15.1496C2.17964 12.4575 2.69362 9.12451 4.42832 9.12451C5.0708 9.12451 5.71328 9.70138 5.97027 10.4064C6.54851 12.137 9.37542 14.2522 11.2386 14.2522C13.6158 14.2522 16.5712 10.9833 16.5712 8.35536C16.6354 6.36838 16.6354 6.30428 17.5349 7.45801C18.0489 8.16307 18.4986 10.0219 18.4986 11.5602ZM30.5773 11.8807C30.7058 12.5216 30.3845 12.9703 29.8063 12.9703C28.6498 12.9703 27.9431 11.9447 28.4571 10.9833C29.0353 10.086 30.3203 10.5987 30.5773 11.8807ZM42.0777 11.432C42.5917 12.7139 41.5637 13.7394 40.4072 13.0344C39.4435 12.3934 39.8932 10.4064 40.9855 10.4064C41.371 10.4064 41.8207 10.8551 42.0777 11.432ZM38.6725 20.7259C41.8207 21.6233 46.3181 25.7255 47.603 28.9944L48.5667 31.5582H35.4601H22.2893L22.739 30.084C23.7027 26.9433 25.0519 25.1486 27.8789 23.1616C32.3762 20.085 34.5607 19.5722 38.6725 20.7259ZM58.9107 22.072C61.1594 22.1361 61.2879 22.3924 59.8744 24.3794C58.7179 26.11 57.6257 26.1741 55.7625 24.6358C54.6703 23.7385 54.4133 23.0975 54.7988 22.0079C55.12 20.9182 55.4413 20.7259 56.0838 21.3028C56.5978 21.6874 57.8185 22.072 58.9107 22.072ZM15.2862 22.3283C15.2862 23.9308 14.0013 25.7896 12.9091 25.7896C11.5599 25.7896 9.50392 23.9308 9.50392 22.777C9.50392 22.1361 9.8894 22.0079 10.7889 22.2643C11.4956 22.4565 12.5878 22.3924 13.1661 22.0079C14.7723 21.0464 15.2862 21.1746 15.2862 22.3283ZM20.4261 27.7124C20.4261 28.0329 20.2333 28.6739 20.0406 29.1867C19.7194 30.0199 19.4624 30.0199 17.6634 29.1226C16.507 28.6098 15.5432 28.097 15.4147 27.9688C15.2862 27.9047 15.6717 27.2638 16.3142 26.5587C17.3422 25.3409 17.5349 25.3409 18.9484 26.2382C19.7194 26.751 20.4261 27.4561 20.4261 27.7124ZM53.7708 26.3664C55.12 27.7124 54.7346 28.4816 52.1004 29.2507C50.1729 29.8276 49.3377 27.392 51.0724 26.11C52.5501 24.9563 52.3574 24.9563 53.7708 26.3664ZM48.374 36.1731C47.2818 40.0189 44.9688 43.5442 42.5274 45.2748C35.2031 50.3384 25.3089 46.4926 22.6105 37.5833L21.7753 34.763H35.2674H48.7595L48.374 36.1731Z" fill="#FA2F3A"/>
<path d="M59.4511 48.6151C58.9371 44.577 57.4594 43.1669 53.3475 42.9746L53.7138 41.5645L52.3838 40.7312C52.3838 40.1544 53.0905 39.8339 54.6325 39.8339C59.5153 39.8339 62.4065 42.9105 62.792 48.4869C62.9847 51.5635 62.9205 51.6917 61.3785 51.6917C59.9651 51.6917 59.7081 51.3712 59.4511 48.6151Z" fill="#FA2F3A"/>
<path d="M27.8447 26.5525C27.5877 27.1294 27.7162 27.8986 28.0375 28.2191C28.9369 29.1164 30.9286 28.155 30.6716 26.9371C30.4146 25.527 28.2945 25.2706 27.8447 26.5525Z" fill="#4D030E"/>
<path d="M28.3585 39.4999C28.6155 40.7819 29.5149 41.1664 30.7356 40.3973C31.8921 39.6281 31.0569 38.4103 29.4507 38.4103C28.5512 38.4103 28.23 38.7949 28.3585 39.4999Z" fill="#4D030E"/>
</svg>
